HIERARCHY
ROOT Hips
{
    OFFSET 0.000000 0.000000 0.000000
    CHANNELS 6 Xposition Yposition Zposition Zrotation Xrotation Yrotation
    JOINT Spine
    {
        OFFSET -0.000000 7.284621 0.000000
        CHANNELS 3 Zrotation Xrotation Yrotation
        JOINT Spine1
        {
            OFFSET -0.000000 19.968920 0.000000
            CHANNELS 3 Zrotation Xrotation Yrotation
            JOINT Neck
            {
                OFFSET -0.000000 21.745657 0.000000
                CHANNELS 3 Zrotation Xrotation Yrotation
                JOINT Head
                {
                    OFFSET -0.000000 13.769711 1.776737
                    CHANNELS 3 Zrotation Xrotation Yrotation
                    End Site
                    {
                        OFFSET -0.000000 17.767368 0.000000
                    }
                }
            }
            JOINT LeftShoulder
            {
                OFFSET 3.594505 17.711157 -0.013107
                CHANNELS 3 Zrotation Xrotation Yrotation
                JOINT LeftArm
                {
                    OFFSET 12.210003 0.000000 0.000000
                    CHANNELS 3 Zrotation Xrotation Yrotation
                    JOINT LeftForeArm
                    {
                        OFFSET 24.535166 0.000000 0.000000
                        CHANNELS 3 Zrotation Xrotation Yrotation
                        JOINT LeftHand
                        {
                            OFFSET 20.235195 0.000000 0.000000
                            CHANNELS 3 Zrotation Xrotation Yrotation
                            JOINT LeftHandThumb1
                            {
                                OFFSET 1.906737 -2.166747 3.033446
                                CHANNELS 3 Zrotation Xrotation Yrotation
                                JOINT LeftHandThumb2
                                {
                                    OFFSET 2.043247 0.000000 1.332553
                                    CHANNELS 3 Zrotation Xrotation Yrotation
                                    JOINT LeftHandThumb3
                                    {
                                        OFFSET 2.665105 0.000000 0.000000
                                        CHANNELS 3 Zrotation Xrotation Yrotation
                                        End Site
                                        {
                                            OFFSET 2.367595 0.000000 0.000000
                                        }
                                    }
                                }
                            }
                            JOINT LeftHandIndex1
                            {
                                OFFSET 7.800290 0.000000 3.033446
                                CHANNELS 3 Zrotation Xrotation Yrotation
                                JOINT LeftHandIndex2
                                {
                                    OFFSET 4.441842 0.000000 0.000000
                                    CHANNELS 3 Zrotation Xrotation Yrotation
                                    JOINT LeftHandIndex3
                                    {
                                        OFFSET 2.220921 0.000000 0.000000
                                        CHANNELS 3 Zrotation Xrotation Yrotation
                                        End Site
                                        {
                                            OFFSET 1.972996 0.000000 0.000000
                                        }
                                    }
                                }
                            }
                            JOINT LeftHandMiddle1
                            {
                                OFFSET 7.800290 0.000000 1.005371
                                CHANNELS 3 Zrotation Xrotation Yrotation
                                JOINT LeftHandMiddle2
                                {
                                    OFFSET 4.886026 0.000000 0.000000
                                    CHANNELS 3 Zrotation Xrotation Yrotation
                                    JOINT LeftHandMiddle3
                                    {
                                        OFFSET 2.665105 0.000000 0.000000
                                        CHANNELS 3 Zrotation Xrotation Yrotation
                                        End Site
                                        {
                                            OFFSET 2.367595 0.000000 0.000000
                                        }
                                    }
                                }
                            }
                            JOINT LeftHandRing1
                            {
                                OFFSET 7.366940 0.000000 -1.005371
                                CHANNELS 3 Zrotation Xrotation Yrotation
                                JOINT LeftHandRing2
                                {
                                    OFFSET 4.441842 0.000000 0.000000
                                    CHANNELS 3 Zrotation Xrotation Yrotation
                                    JOINT LeftHandRing3
                                    {
                                        OFFSET 2.220921 0.000000 0.000000
                                        CHANNELS 3 Zrotation Xrotation Yrotation
                                        End Site
                                        {
                                            OFFSET 1.972996 0.000000 0.000000
                                        }
                                    }
                                }
                            }
                            JOINT LeftHandPinky1
                            {
                                OFFSET 6.933591 0.000000 -3.033446
                                CHANNELS 3 Zrotation Xrotation Yrotation
                                JOINT LeftHandPinky2
                                {
                                    OFFSET 3.553473 0.000000 0.000000
                                    CHANNELS 3 Zrotation Xrotation Yrotation
                                    JOINT LeftHandPinky3
                                    {
                                        OFFSET 1.776737 0.000000 0.000000
                                        CHANNELS 3 Zrotation Xrotation Yrotation
                                        End Site
                                        {
                                            OFFSET 1.578397 0.000000 0.000000
                                        }
                                    }
                                }
                            }
                        }
                    }
                }
            }
            JOINT RightShoulder
            {
                OFFSET -3.500468 17.711157 -0.013107
                CHANNELS 3 Zrotation Xrotation Yrotation
                JOINT RightArm
                {
                    OFFSET -12.210003 0.000000 0.000000
                    CHANNELS 3 Zrotation Xrotation Yrotation
                    JOINT RightForeArm
                    {
                        OFFSET -24.535166 0.000000 0.000000
                        CHANNELS 3 Zrotation Xrotation Yrotation
                        JOINT RightHand
                        {
                            OFFSET -20.235195 0.000000 0.000000
                            CHANNELS 3 Zrotation Xrotation Yrotation
                            JOINT RightHandThumb1
                            {
                                OFFSET -1.906737 -2.166747 3.033446
                                CHANNELS 3 Zrotation Xrotation Yrotation
                                JOINT RightHandThumb2
                                {
                                    OFFSET -2.043247 0.000000 1.332553
                                    CHANNELS 3 Zrotation Xrotation Yrotation
                                    JOINT RightHandThumb3
                                    {
                                        OFFSET -2.665105 0.000000 0.000000
                                        CHANNELS 3 Zrotation Xrotation Yrotation
                                        End Site
                                        {
                                            OFFSET -2.367595 0.000000 0.000000
                                        }
                                    }
                                }
                            }
                            JOINT RightHandIndex1
                            {
                                OFFSET -7.800290 0.000000 3.033446
                                CHANNELS 3 Zrotation Xrotation Yrotation
                                JOINT RightHandIndex2
                                {
                                    OFFSET -4.441842 0.000000 0.000000
                                    CHANNELS 3 Zrotation Xrotation Yrotation
                                    JOINT RightHandIndex3
                                    {
                                        OFFSET -2.220921 0.000000 0.000000
                                        CHANNELS 3 Zrotation Xrotation Yrotation
                                        End Site
                                        {
                                            OFFSET -1.972996 0.000000 0.000000
                                        }
                                    }
                                }
                            }
                            JOINT RightHandMiddle1
                            {
                                OFFSET -7.800290 0.000000 1.005371
                                CHANNELS 3 Zrotation Xrotation Yrotation
                                JOINT RightHandMiddle2
                                {
                                    OFFSET -4.886026 0.000000 0.000000
                                    CHANNELS 3 Zrotation Xrotation Yrotation
                                    JOINT RightHandMiddle3
                                    {
                                        OFFSET -2.665105 0.000000 0.000000
                                        CHANNELS 3 Zrotation Xrotation Yrotation
                                        End Site
                                        {
                                            OFFSET -2.367595 0.000000 0.000000
                                        }
                                    }
                                }
                            }
                            JOINT RightHandRing1
                            {
                                OFFSET -7.366940 0.000000 -1.005371
                                CHANNELS 3 Zrotation Xrotation Yrotation
                                JOINT RightHandRing2
                                {
                                    OFFSET -4.441842 0.000000 0.000000
                                    CHANNELS 3 Zrotation Xrotation Yrotation
                                    JOINT RightHandRing3
                                    {
                                        OFFSET -2.220921 0.000000 0.000000
                                        CHANNELS 3 Zrotation Xrotation Yrotation
                                        End Site
                                        {
                                            OFFSET -1.972996 0.000000 0.000000
                                        }
                                    }
                                }
                            }
                            JOINT RightHandPinky1
                            {
                                OFFSET -6.933591 0.000000 -3.033446
                                CHANNELS 3 Zrotation Xrotation Yrotation
                                JOINT RightHandPinky2
                                {
                                    OFFSET -3.553473 0.000000 0.000000
                                    CHANNELS 3 Zrotation Xrotation Yrotation
                                    JOINT RightHandPinky3
                                    {
                                        OFFSET -1.776737 0.000000 0.000000
                                        CHANNELS 3 Zrotation Xrotation Yrotation
                                        End Site
                                        {
                                            OFFSET -1.578397 0.000000 0.000000
                                        }
                                    }
                                }
                            }
                        }
                    }
                }
            }
        }
    }
    JOINT LeftUpLeg
    {
        OFFSET 8.883684 0.000000 0.000000
        CHANNELS 3 Zrotation Xrotation Yrotation
        JOINT LeftLeg
        {
            OFFSET -0.000000 -38.184189 0.000000
            CHANNELS 3 Zrotation Xrotation Yrotation
            JOINT LeftFoot
            {
                OFFSET -0.000000 -35.840691 0.000000
                CHANNELS 3 Zrotation Xrotation Yrotation
                JOINT LeftToeBase
                {
                    OFFSET -0.000000 -5.774395 13.325527
                    CHANNELS 3 Zrotation Xrotation Yrotation
                    End Site
                    {
                        OFFSET -0.000000 0.000000 3.553473
                    }
                }
            }
        }
    }
    JOINT RightUpLeg
    {
        OFFSET -8.883684 0.000000 0.000000
        CHANNELS 3 Zrotation Xrotation Yrotation
        JOINT RightLeg
        {
            OFFSET -0.000000 -38.184189 0.000000
            CHANNELS 3 Zrotation Xrotation Yrotation
            JOINT RightFoot
            {
                OFFSET -0.000000 -35.840691 0.000000
                CHANNELS 3 Zrotation Xrotation Yrotation
                JOINT RightToeBase
                {
                    OFFSET -0.000000 -5.774395 13.325527
                    CHANNELS 3 Zrotation Xrotation Yrotation
                    End Site
                    {
                        OFFSET -0.000000 0.000000 3.553473
                    }
                }
            }
        }
    }
}
MOTION
Frames:    5
Frame Time:    0.008333
-4.121293    84.277832    119.314316    6.188527    5.766132    39.531410    -0.651289    -9.269629    3.308567    0.258404    2.645486    1.119022    -5.990190    3.697741    -23.989988    -18.270857    13.417119    -21.493511    20.216307    -11.018231    -17.380312    4.724823    27.711382    -90.961777    62.753078    6.082775    -68.274719    -19.481098    -30.716274    -37.518467    6.833622    0.615894    8.556632    -0.000000    0.000000    7.055826    -0.000000    0.000000    14.111651    3.634426    0.000000    -0.000000    0.000000    0.000000    0.000000    0.000000    0.000000    0.000000    0.503031    -0.014916    0.319128    -3.864285    0.000000    0.000000    -1.932143    0.000000    0.000000    -2.628234    -0.047241    0.636964    -7.728571    0.000000    0.000000    -3.864286    0.000000    0.000000    -5.854149    -0.098652    0.962079    -11.709956    0.000000    0.000000    -5.854977    0.000000    0.000000    -11.948679    -5.113349    4.764706    11.876741    -15.529660    27.642269    -62.773899    -29.580925    32.068943    37.186008    -65.743248    62.672482    -0.480050    -0.525001    0.524154    0.000000    0.000000    0.000000    0.000000    0.000000    0.000000    7.859151    0.000000    -0.000000    15.718302    0.000000    -0.000000    7.859151    0.000000    -0.000000    12.723389    0.000000    -0.000000    25.446774    0.000000    -0.000000    12.723389    0.000000    -0.000000    17.587624    0.000000    -0.000000    35.175251    0.000000    -0.000000    17.587624    0.000000    -0.000000    22.599262    0.000000    -0.000000    45.198524    0.000000    -0.000000    22.599262    0.000000    -0.000000    -5.663312    -17.591387    -8.724241    -3.540817    25.220360    3.149255    -2.692080    9.091369    -8.599916    -0.237305    -3.886150    -0.821018    -7.947598    3.706779    -15.524174    5.576154    11.543217    -34.623589    6.275211    -10.168078    -9.165709    0.241295    -2.162097    -0.333665    
-3.895692    84.387695    119.459770    6.048944    5.833151    39.669159    -0.611659    -9.794805    3.242391    -0.088173    2.778396    1.105075    -5.902365    4.587202    -23.904947    -18.100620    13.527306    -21.459610    20.082340    -10.805761    -17.390400    4.631757    27.973431    -91.064087    62.815586    6.201786    -68.148735    -19.520960    -30.711706    -37.501221    6.750377    0.655438    8.526462    -0.000000    0.000000    7.036315    -0.000000    0.000000    14.072631    3.483858    0.000000    -0.000000    0.000000    0.000000    0.000000    0.000000    0.000000    0.000000    0.389286    -0.014245    0.296323    -3.889986    0.000000    0.000000    -1.944993    0.000000    0.000000    -2.705173    -0.044467    0.591446    -7.779972    0.000000    0.000000    -3.889986    0.000000    0.000000    -5.893198    -0.092219    0.893346    -11.787835    0.000000    0.000000    -5.893917    0.000000    0.000000    -12.063990    -4.749410    4.462718    10.493582    -14.608355    27.037062    -61.100262    -28.444395    31.956514    37.143242    -65.387047    62.648415    -0.488882    -0.502853    0.480066    0.000000    0.000000    0.000000    0.000000    0.000000    0.000000    7.815699    0.000000    -0.000000    15.631398    0.000000    -0.000000    7.815699    0.000000    -0.000000    12.698852    0.000000    -0.000000    25.397703    0.000000    -0.000000    12.698852    0.000000    -0.000000    17.582006    0.000000    -0.000000    35.164013    0.000000    -0.000000    17.582006    0.000000    -0.000000    22.613132    0.000000    -0.000000    45.226265    0.000000    -0.000000    22.613132    0.000000    -0.000000    -5.574273    -17.076422    -8.540401    -3.455635    24.351017    2.879589    -2.551817    9.208683    -8.754725    -0.282950    -4.129427    -0.791796    -7.974720    3.922520    -15.815269    5.456562    11.397798    -34.429359    6.739909    -9.672494    -8.636231    0.233843    -2.330248    -0.314477    
-3.668186    84.486931    119.603790    5.897009    5.879713    39.743568    -0.566043    -10.306472    3.199325    -0.398268    2.898490    1.098364    -5.816233    5.455317    -23.808704    -17.956215    13.649576    -21.404015    19.966122    -10.610985    -17.405384    4.552103    28.220911    -91.160820    62.875443    6.322607    -68.011848    -19.544460    -30.665068    -37.497307    6.720868    0.663464    8.507389    -0.000000    0.000000    7.021011    -0.000000    0.000000    14.042022    3.383330    0.000000    -0.000000    0.000000    0.000000    0.000000    0.000000    0.000000    0.000000    0.306479    -0.014084    0.286212    -3.920879    0.000000    0.000000    -1.960440    0.000000    0.000000    -2.770264    -0.043510    0.571255    -7.841757    0.000000    0.000000    -3.920878    0.000000    0.000000    -5.940049    -0.089783    0.862846    -11.881450    0.000000    0.000000    -5.940725    0.000000    0.000000    -12.194574    -4.428879    4.198422    9.203035    -13.664322    26.471863    -59.479561    -27.365921    31.936752    37.256657    -65.127724    62.843510    -0.497692    -0.476017    0.428103    0.000000    0.000000    0.000000    0.000000    0.000000    0.000000    7.772132    0.000000    -0.000000    15.544265    0.000000    -0.000000    7.772132    0.000000    -0.000000    12.677831    0.000000    -0.000000    25.355658    0.000000    -0.000000    12.677831    0.000000    -0.000000    17.583525    0.000000    -0.000000    35.167049    0.000000    -0.000000    17.583525    0.000000    -0.000000    22.637878    0.000000    -0.000000    45.275764    0.000000    -0.000000    22.637878    0.000000    -0.000000    -5.450551    -16.553459    -8.310003    -3.354711    23.476225    3.050146    -2.392932    9.327796    -9.362618    -0.325797    -4.362581    -0.766207    -8.001896    4.113794    -16.099253    5.342472    11.309150    -34.165558    7.202743    -9.209582    -8.084858    0.225483    -2.486644    -0.294066    
-3.439368    84.574036    119.746849    5.738176    5.905841    39.764828    -0.520832    -10.801542    3.174167    -0.672979    3.011343    1.097188    -5.728300    6.298079    -23.707165    -17.831690    13.777291    -21.334576    19.872602    -10.433489    -17.423737    4.471630    28.452808    -91.254112    62.922516    6.451045    -67.864738    -19.558647    -30.590612    -37.506279    6.707924    0.659935    8.489163    -0.000000    0.000000    7.009596    -0.000000    0.000000    14.019193    3.304227    0.000000    -0.000000    0.000000    0.000000    0.000000    0.000000    0.000000    0.000000    0.235680    -0.014260    0.283503    -3.956476    0.000000    0.000000    -1.978238    0.000000    0.000000    -2.832758    -0.043675    0.565836    -7.912953    0.000000    0.000000    -3.956476    0.000000    0.000000    -5.993991    -0.089743    0.854647    -11.989322    0.000000    0.000000    -5.994661    0.000000    0.000000    -12.336002    -4.153026    3.973287    8.005086    -12.712667    25.930462    -57.913773    -26.362118    32.025246    37.460995    -64.934967    63.183544    -0.505106    -0.446902    0.373360    0.000000    0.000000    0.000000    0.000000    0.000000    0.000000    7.729058    0.000000    -0.000000    15.458117    0.000000    -0.000000    7.729058    0.000000    -0.000000    12.660188    0.000000    -0.000000    25.320377    0.000000    -0.000000    12.660188    0.000000    -0.000000    17.591320    0.000000    -0.000000    35.182644    0.000000    -0.000000    17.591320    0.000000    -0.000000    22.671885    0.000000    -0.000000    45.343761    0.000000    -0.000000    22.671885    0.000000    -0.000000    -5.299547    -16.025576    -8.057945    -3.248082    22.608833    3.632015    -2.218656    9.438015    -10.375865    -0.364466    -4.584145    -0.747617    -8.027817    4.293679    -16.358282    5.234159    11.258379    -33.862793    7.664027    -8.775990    -7.510715    0.218529    -2.633188    -0.276411    
-3.209785    84.647827    119.889511    5.576210    5.911592    39.744827    -0.480554    -11.280619    3.161271    -0.913315    3.127168    1.099663    -5.636762    7.110916    -23.604837    -17.720242    13.901998    -21.258320    19.804554    -10.269887    -17.443958    4.382689    28.666471    -91.344803    62.946507    6.585630    -67.704521    -19.565868    -30.496857    -37.522850    6.682464    0.660032    8.463138    -0.000000    0.000000    7.000336    -0.000000    0.000000    14.000672    3.225857    0.000000    -0.000000    0.000000    0.000000    0.000000    0.000000    0.000000    0.000000    0.163117    -0.014547    0.282658    -3.996589    0.000000    0.000000    -1.998295    0.000000    0.000000    -2.899515    -0.044176    0.564135    -7.993179    0.000000    0.000000    -3.996589    0.000000    0.000000    -6.054766    -0.090385    0.852057    -12.110875    0.000000    0.000000    -6.055438    0.000000    0.000000    -12.481314    -3.912591    3.785049    6.892691    -11.772022    25.401007    -56.427738    -25.435080    32.217285    37.689831    -64.772148    63.584393    -0.510888    -0.417572    0.319494    0.000000    0.000000    -0.037043    0.000000    0.000000    -0.074085    7.686534    0.000000    -0.000000    15.373070    0.000000    -0.000000    7.686534    0.000000    -0.000000    12.644257    0.000000    -0.000000    25.288515    0.000000    -0.000000    12.644257    0.000000    -0.000000    17.601978    0.000000    -0.000000    35.203960    0.000000    -0.000000    17.601978    0.000000    -0.000000    22.709934    0.000000    -0.000000    45.419868    0.000000    -0.000000    22.709934    0.000000    -0.000000    -5.129122    -15.500689    -7.813373    -3.144675    21.772379    4.472776    -2.051651    9.518563    -11.619215    -0.397934    -4.790687    -0.737627    -8.049621    4.474574    -16.578865    5.131592    11.227221    -33.548225    8.124393    -8.368165    -6.914713    0.215047    -2.771695    -0.265075    
